# xmcd
#
# Track frame offsets:
#	150
#	17282
#	32970
#	51343
#	67861
#	83691
#	96284
#	111806
#	127034
#	140730
#	153238
#	168896
#
# Disc length: 2440 seconds
# Revision: 0
# Processed by: cddbd v1.5.2PL0 Copyright (c) Steve Scherf et al.
# Submitted via: dBpowerAMP V12.0
#
DISCID=9609860c
DTITLE=Hammertowne - Hillbilly Heroes
DYEAR=2017
DGENRE=Country
TTITLE0=Don't Ever Cross a Moonshine Man
TTITLE1=Hillbilly Heroes
TTITLE2=Scorcher Carroll's Farm
TTITLE3=The Dream
TTITLE4=The Roof Is Coming Down
TTITLE5=Louisville Rambler
TTITLE6=I'm Lonely for My Only
TTITLE7=Rainy Old River Town
TTITLE8=Bluer by the Minute
TTITLE9=Wicked Woman
TTITLE10=A Day in the Life of the One Left Behind
TTITLE11=Lights and Sirens
EXTD=
EXTT0=
EXTT1=
EXTT2=
EXTT3=
EXTT4=
EXTT5=
EXTT6=
EXTT7=
EXTT8=
EXTT9=
EXTT10=
EXTT11=
PLAYORDER=
